PathFileType	4	(x/y/z)	S10_M20_T58
DataRate	CameraRate	NumFrames	NumMarkers	Units	OrigDataRate	OrigDataStartFrame	OrigNumFrames
240	240	9	51	mm	240	404	538
Frame#	Time	Sternum			R.Acromium			L.Acromium			Top.Head			R.ASIS			L.ASIS			R.PSIS			L.PSIS			R.Great.Tro			L.Great.Tro			R.Iliac.Crest			L.Iliac.Crest			V.Sacral			R.Thigh.Upper.Post			R.Thigh.Lower.Ant			R.Thigh.Lower.Post			R.Thigh.Upper.Ant			R.Knee.Lat			R.Knee.Med			R.Shank.Upper.Post			R.Shank.Lower.Ant			R.Shank.Lower.Post			R.Shank.Upper.Ant			R.Ankle.Lat			R.Ankle.Med			R.Heel.Upper			R.Heel.Med			R.Heel.Lat			R.Toe.Lat			R.Toe.Med			R.Toe.Tip			L.Thigh.Upper.Post			L.Thigh.Lower.Ant			L.Thigh.Lower.Post			L.Thigh.Upper.Ant			L.Knee.Lat			L.Knee.Med			L.Shank.Upper.Post			L.Shank.Lower.Ant			L.Shank.Lower.Post			L.Shank.Upper.Ant			L.Ankle.Lat			L.Ankle.Med			L.Heel.Upper			L.Heel.Med			L.Heel.Lat			L.Toe.Lat			L.Toe.Med			L.Toe.Tip			Cervical.Spine			Back			
		X1	Y1	Z1	X2	Y2	Z2	X3	Y3	Z3	X4	Y4	Z4	X5	Y5	Z5	X6	Y6	Z6	X7	Y7	Z7	X8	Y8	Z8	X9	Y9	Z9	X10	Y10	Z10	X11	Y11	Z11	X12	Y12	Z12	X13	Y13	Z13	X14	Y14	Z14	X15	Y15	Z15	X16	Y16	Z16	X17	Y17	Z17	X18	Y18	Z18	X19	Y19	Z19	X20	Y20	Z20	X21	Y21	Z21	X22	Y22	Z22	X23	Y23	Z23	X24	Y24	Z24	X25	Y25	Z25	X26	Y26	Z26	X27	Y27	Z27	X28	Y28	Z28	X29	Y29	Z29	X30	Y30	Z30	X31	Y31	Z31	X32	Y32	Z32	X33	Y33	Z33	X34	Y34	Z34	X35	Y35	Z35	X36	Y36	Z36	X37	Y37	Z37	X38	Y38	Z38	X39	Y39	Z39	X40	Y40	Z40	X41	Y41	Z41	X42	Y42	Z42	X43	Y43	Z43	X44	Y44	Z44	X45	Y45	Z45	X46	Y46	Z46	X47	Y47	Z47	X48	Y48	Z48	X49	Y49	Z49	X50	Y50	Z50	X51	Y51	Z51	

404	1.6792	1378.1	1269.6	285.31	1262	1426.1	433.23	1244.2	1441	127.21	1222.5	1743.7	292.21	1318.2	989.66	392.72	1335.4	1026	163.87	1126.3	1017.5	290.23	1137.3	1031.7	209.93	1236.7	904.08	449.17	1282.4	969.52	98.402	1220.1	1067.6	434.23	1267.9	1100.5	133.3	1108.2	990.54	247.32	1274.3	699.13	460.33	1344.3	627.16	440.36	1279.8	609.2	455.45	1341.4	719.16	441.4	1288.4	486.83	428.4	1308.1	478.49	298.62	1087.6	395.87	414.39	1078.7	304.49	411.94	1030.3	348.44	408.8	1141.9	348.31	418.54	957.07	265.57	395.05	978.85	255.26	315.49	909.8	293.8	334.3	889.4	276.38	305.15	881.8	287.37	366.24	909.61	124.95	427.52	941.09	93.114	328.61	969	48.392	377.34	1297.9	680.99	107.89	1381.9	617.33	145.6	1311.5	589.93	135.17	1372.4	703.29	120.12	1358.2	513.01	157.99	1349.9	517.28	286.04	1284.3	302.35	150.72	1341.9	211.22	175.95	1281.5	225.62	161.39	1345.2	287.7	165.33	1295.3	107.19	173.52	1304.1	116.7	263.45	1224	78.395	219.15	1233.2	46.12	250.97	1228.7	49.208	185.41	1405	42.647	151.3	1433.1	44.385	258.58	1488.3	56.849	212.3	1173.8	1488.1	295.3	1092.9	1278.6	282.83
405	1.6833	1382.8	1270.8	285.61	1265.9	1427.1	433.32	1249.8	1442.4	127.23	1228	1744.9	292.54	1323.3	991.18	392.19	1340.2	1026.9	163.26	1131.1	1018.6	290.35	1142	1032.6	209.91	1242.6	905.62	449.32	1286.8	970.13	98.089	1225.1	1069	433.98	1272.5	1101.4	132.86	1113	991.52	247.49	1282.5	700.91	460.72	1353.2	629.78	440.24	1289.1	611.05	455.99	1349.1	721.73	441.13	1298.9	488.62	428.69	1318.1	480.6	298.85	1098.7	395.86	414.66	1090.7	304.37	412.05	1041.8	347.91	409.09	1153.5	348.82	418.62	969.35	264.18	395.21	990.82	254.26	315.91	920.31	291.27	334.79	900.23	273.24	305.81	892.83	284.07	367	926.28	122.8	428.29	957.88	91.866	329.05	987.46	48.009	377.64	1300.3	681.52	107.87	1383.6	617.12	145.4	1313.1	590.34	135.07	1375	703.18	119.92	1359.4	513.01	157.77	1350.9	517.18	285.76	1284.9	302.45	150.57	1342.3	211.2	175.97	1281.8	225.75	161.31	1345.7	287.66	165.27	1295.4	107.19	173.52	1304.2	116.78	263.49	1224.1	78.449	219.18	1233.2	46.165	250.97	1228.7	49.289	185.43	1405	42.653	151.32	1433.1	44.339	258.6	1488.4	56.784	212.33	1178.5	1489.1	294.9	1097.6	1279.6	281.89
406	1.6875	1387.4	1272	285.88	1269.8	1428	433.4	1255.4	1443.8	127.26	1233.4	1746	292.88	1328.3	992.67	391.65	1344.9	1027.8	162.65	1135.9	1019.6	290.48	1146.6	1033.4	209.92	1248.4	907.16	449.49	1291.2	970.71	97.781	1230.1	1070.4	433.74	1277.1	1102.2	132.43	1117.7	992.46	247.69	1290.7	702.73	461.11	1362.1	632.43	440.08	1298.4	612.95	456.53	1356.8	724.31	440.8	1309.2	490.45	428.97	1328	482.75	299.08	1109.8	395.78	414.96	1102.7	304.18	412.19	1053.4	347.27	409.42	1165.1	349.3	418.72	981.7	262.64	395.41	1002.9	253.13	316.36	930.88	288.5	335.33	911.17	269.86	306.51	903.96	280.53	367.79	943.12	120.59	429.07	974.87	90.575	329.51	1006.1	47.654	377.95	1302.6	682.05	107.85	1385.4	616.9	145.2	1314.7	590.76	134.96	1377.6	703.06	119.72	1360.5	513.01	157.54	1351.9	517.08	285.48	1285.5	302.55	150.41	1342.7	211.18	175.99	1282.2	225.87	161.21	1346.3	287.62	165.22	1295.4	107.19	173.52	1304.2	116.86	263.52	1224.1	78.501	219.21	1233.2	46.209	250.98	1228.7	49.366	185.44	1405	42.659	151.34	1433.1	44.295	258.62	1488.4	56.722	212.35	1183.1	1490.1	294.5	1102.4	1280.6	280.98
407	1.6917	1392.1	1273.1	286.12	1273.8	1428.9	433.48	1261	1445.1	127.3	1238.9	1747.1	293.23	1333.4	994.13	391.12	1349.7	1028.7	162.06	1140.7	1020.6	290.63	1151.3	1034.2	209.94	1254.3	908.68	449.67	1295.5	971.26	97.479	1235.2	1071.8	433.5	1281.7	1103	132	1122.4	993.37	247.9	1298.9	704.57	461.5	1370.9	635.11	439.88	1307.7	614.89	457.08	1364.5	726.89	440.41	1319.5	492.32	429.25	1337.8	484.94	299.33	1120.9	395.61	415.28	1114.8	303.91	412.36	1065	346.52	409.78	1176.7	349.73	418.84	994.12	260.96	395.64	1015	251.87	316.84	941.53	285.51	335.93	922.25	266.23	307.25	915.21	276.75	368.62	960.13	118.32	429.86	992.04	89.249	329.98	1024.9	47.333	378.28	1305	682.57	107.82	1387.1	616.68	145.01	1316.2	591.19	134.85	1380.1	702.93	119.52	1361.7	513.02	157.31	1352.9	516.99	285.2	1286.1	302.64	150.25	1343	211.16	176	1282.6	226	161.11	1346.8	287.59	165.16	1295.5	107.18	173.53	1304.3	116.94	263.55	1224.2	78.551	219.24	1233.2	46.252	250.98	1228.8	49.438	185.46	1405	42.665	151.35	1433.2	44.252	258.64	1488.4	56.661	212.38	1187.8	1491.1	294.12	1107.1	1281.6	280.1
408	1.6958	1396.7	1274.2	286.32	1277.7	1429.7	433.56	1266.5	1446.4	127.35	1244.3	1748.2	293.58	1338.4	995.57	390.59	1354.4	1029.6	161.48	1145.5	1021.6	290.78	1155.9	1034.9	209.99	1260.1	910.2	449.87	1299.9	971.78	97.184	1240.2	1073.1	433.27	1286.3	1103.8	131.57	1127.1	994.24	248.13	1307.1	706.43	461.89	1379.7	637.82	439.63	1317	616.87	457.63	1372.1	729.48	439.97	1329.7	494.2	429.52	1347.4	487.17	299.57	1131.9	395.35	415.63	1126.9	303.57	412.56	1076.5	345.66	410.17	1188.2	350.11	418.99	1006.6	259.13	395.91	1027.2	250.5	317.34	952.29	282.29	336.57	933.48	262.38	308.03	926.58	272.73	369.47	977.28	116.02	430.66	1009.4	87.892	330.47	1043.9	47.05	378.64	1307.3	683.1	107.8	1388.7	616.44	144.82	1317.8	591.61	134.73	1382.6	702.8	119.31	1362.8	513.03	157.07	1353.9	516.9	284.93	1286.6	302.74	150.08	1343.3	211.15	176	1282.9	226.12	161.01	1347.4	287.56	165.09	1295.5	107.18	173.53	1304.3	117.03	263.59	1224.2	78.598	219.28	1233.2	46.295	250.98	1228.8	49.506	185.47	1405	42.671	151.37	1433.2	44.21	258.66	1488.5	56.601	212.4	1192.4	1492	293.75	1111.8	1282.5	279.24
409	1.7	1401.3	1275.3	286.49	1281.6	1430.5	433.64	1272.1	1447.7	127.4	1249.7	1749.2	293.93	1343.4	996.97	390.07	1359.2	1030.4	160.92	1150.3	1022.5	290.94	1160.6	1035.6	210.05	1266	911.7	450.07	1304.2	972.27	96.895	1245.2	1074.4	433.05	1290.9	1104.6	131.16	1131.9	995.07	248.37	1315.2	708.32	462.28	1388.5	640.55	439.33	1326.3	618.88	458.17	1379.7	732.07	439.47	1339.8	496.11	429.77	1356.9	489.42	299.82	1142.9	395.01	416.01	1139	303.14	412.8	1088.1	344.68	410.6	1199.7	350.45	419.17	1019.2	257.15	396.22	1039.5	248.99	317.86	963.17	278.84	337.25	944.89	258.31	308.84	938.11	268.5	370.34	994.55	113.68	431.48	1026.8	86.509	330.98	1063	46.809	379.02	1309.6	683.62	107.78	1390.3	616.2	144.64	1319.3	592.04	134.61	1385.1	702.67	119.11	1364	513.04	156.82	1354.9	516.83	284.65	1287.2	302.84	149.91	1343.7	211.14	176	1283.2	226.25	160.91	1347.9	287.53	165.02	1295.5	107.18	173.53	1304.4	117.11	263.62	1224.2	78.643	219.31	1233.2	46.338	250.99	1228.8	49.571	185.49	1405	42.676	151.39	1433.2	44.169	258.68	1488.5	56.541	212.42	1197.1	1492.9	293.39	1116.6	1283.4	278.4
410	1.7042	1405.9	1276.3	286.63	1285.6	1431.3	433.71	1277.6	1449	127.47	1255	1750.2	294.29	1348.4	998.33	389.57	1363.9	1031.2	160.38	1155.1	1023.4	291.1	1165.3	1036.3	210.11	1271.9	913.17	450.29	1308.6	972.72	96.612	1250.1	1075.7	432.83	1295.5	1105.3	130.76	1136.6	995.86	248.6	1323.4	710.22	462.64	1397.2	643.28	439	1335.5	620.92	458.71	1387.3	734.65	438.91	1349.8	498.03	430.02	1366.3	491.7	300.07	1153.9	394.57	416.41	1151.1	302.64	413.06	1099.7	343.59	411.07	1211.3	350.73	419.37	1031.9	255.02	396.58	1051.9	247.36	318.4	974.19	275.17	337.97	956.47	254.02	309.67	949.78	264.05	371.23	1011.9	111.32	432.31	1044.4	85.104	331.52	1082.1	46.611	379.44	1311.9	684.14	107.75	1391.8	615.94	144.45	1320.8	592.47	134.49	1387.6	702.53	118.9	1365.1	513.05	156.56	1356	516.77	284.36	1287.7	302.94	149.74	1344	211.14	175.98	1283.6	226.37	160.8	1348.4	287.51	164.93	1295.6	107.17	173.54	1304.4	117.19	263.65	1224.3	78.687	219.34	1233.2	46.381	250.99	1228.8	49.632	185.5	1405.1	42.682	151.4	1433.2	44.127	258.7	1488.5	56.48	212.45	1201.8	1493.8	293.04	1121.3	1284.3	277.59
411	1.7083	1410.5	1277.3	286.75	1289.5	1432	433.78	1283.1	1450.2	127.54	1260.4	1751.1	294.65	1353.4	999.65	389.08	1368.6	1031.9	159.87	1159.9	1024.3	291.25	1169.9	1036.9	210.19	1277.7	914.63	450.51	1312.9	973.13	96.336	1255.1	1077	432.62	1300.1	1106	130.37	1141.3	996.62	248.84	1331.6	712.14	463	1405.9	646.03	438.62	1344.8	622.99	459.25	1394.8	737.22	438.3	1359.8	499.97	430.25	1375.5	493.99	300.33	1164.9	394.03	416.85	1163.3	302.06	413.36	1111.4	342.38	411.57	1222.8	350.95	419.61	1044.7	252.76	396.97	1064.5	245.61	318.95	985.36	271.29	338.71	968.26	249.52	310.53	961.63	259.39	372.13	1029.4	108.94	433.15	1062.1	83.682	332.09	1101.3	46.457	379.88	1314.2	684.65	107.72	1393.3	615.67	144.27	1322.3	592.9	134.36	1390.1	702.38	118.69	1366.1	513.06	156.29	1357.2	516.71	284.07	1288.2	303.05	149.57	1344.3	211.14	175.95	1283.9	226.5	160.69	1348.9	287.49	164.84	1295.6	107.17	173.54	1304.4	117.28	263.68	1224.3	78.73	219.36	1233.2	46.424	250.99	1228.8	49.692	185.52	1405.1	42.686	151.41	1433.2	44.086	258.72	1488.6	56.417	212.47	1206.4	1494.7	292.7	1126	1285.2	276.79
412	1.7125	1415.1	1278.3	286.83	1293.5	1432.7	433.85	1288.6	1451.4	127.62	1265.7	1752	295.02	1358.3	1000.9	388.61	1373.3	1032.6	159.38	1164.6	1025.1	291.4	1174.6	1037.6	210.26	1283.5	916.05	450.73	1317.2	973.5	96.068	1260.1	1078.2	432.41	1304.7	1106.6	130	1146.1	997.33	249.07	1339.7	714.06	463.33	1414.5	648.77	438.19	1353.9	625.08	459.77	1402.3	739.76	437.63	1369.7	501.91	430.47	1384.6	496.28	300.58	1175.9	393.4	417.31	1175.5	301.4	413.68	1123	341.04	412.12	1234.4	351.12	419.87	1057.5	250.36	397.4	1077.1	243.72	319.52	996.71	267.2	339.48	980.25	244.83	311.42	973.66	254.55	373.04	1047	106.55	434.01	1079.9	82.244	332.69	1120.6	46.347	380.37	1316.4	685.16	107.69	1394.8	615.39	144.09	1323.8	593.32	134.23	1392.5	702.23	118.48	1367.2	513.07	156.01	1358.3	516.66	283.77	1288.7	303.15	149.4	1344.6	211.14	175.91	1284.2	226.63	160.59	1349.4	287.47	164.74	1295.6	107.18	173.55	1304.5	117.37	263.71	1224.3	78.772	219.39	1233.1	46.468	250.99	1228.9	49.751	185.54	1405.1	42.69	151.43	1433.2	44.042	258.74	1488.6	56.353	212.49	1211.1	1495.5	292.37	1130.8	1286	276.02
